<svg viewBox="0 0 330 200" xmlns="http://www.w3.org/2000/svg"><g><g><g><g><g><line x1="41.6875" y1="174.52400152704956" x2="36.6875" y2="174.52400152704956" style="visibility: inherit;" fill="rgb(0, 0, 0)" stroke="rgb(204, 204, 204)" stroke-width="1px"></line><line x1="41.6875" y1="150.82946411017937" x2="36.6875" y2="150.82946411017937" style="visibility: inherit;" fill="rgb(0, 0, 0)" stroke="rgb(204, 204, 204)" stroke-width="1px"></line><line x1="41.6875" y1="127.13492669330918" x2="36.6875" y2="127.13492669330918" style="visibility: inherit;" fill="rgb(0, 0, 0)" stroke="rgb(204, 204, 204)" stroke-width="1px"></line><line x1="41.6875" y1="103.44038927643899" x2="36.6875" y2="103.44038927643899" style="visibility: inherit;" fill="rgb(0, 0, 0)" stroke="rgb(204, 204, 204)" stroke-width="1px"></line><line x1="41.6875" y1="79.74585185956879" x2="36.6875" y2="79.74585185956879" style="visibility: inherit;" fill="rgb(0, 0, 0)" stroke="rgb(204, 204, 204)" stroke-width="1px"></line><line x1="41.6875" y1="56.05131444269861" x2="36.6875" y2="56.05131444269861" style="visibility: inherit;" fill="rgb(0, 0, 0)" stroke="rgb(204, 204, 204)" stroke-width="1px"></line><line x1="41.6875" y1="32.35677702582839" x2="36.6875" y2="32.35677702582839" style="visibility: inherit;" fill="rgb(0, 0, 0)" stroke="rgb(204, 204, 204)" stroke-width="1px"></line><line x1="41.6875" y1="8.662239608958231" x2="36.6875" y2="8.662239608958231" style="visibility: inherit;" fill="rgb(0, 0, 0)" stroke="rgb(204, 204, 204)" stroke-width="1px"></line></g><g transform="translate(31.6875, 0)"><text x="0" y="174.52400152704956" dx="0em" dy="0.3em" style="text-anchor: end; visibility: hidden; font-family: &quot;Helvetica Neue&quot;, sans-serif; font-size: 12px; font-weight: 200;" fill="rgb(50, 49, 63)" stroke="none" stroke-width="1px">0</text><text x="0" y="150.82946411017937" dx="0em" dy="0.3em" style="text-anchor: end; visibility: inherit; font-family: &quot;Helvetica Neue&quot;, sans-serif; font-size: 12px; font-weight: 200;" fill="rgb(50, 49, 63)" stroke="none" stroke-width="1px">0.5</text><text x="0" y="127.13492669330918" dx="0em" dy="0.3em" style="text-anchor: end; visibility: hidden; font-family: &quot;Helvetica Neue&quot;, sans-serif; font-size: 12px; font-weight: 200;" fill="rgb(50, 49, 63)" stroke="none" stroke-width="1px">1</text><text x="0" y="103.44038927643899" dx="0em" dy="0.3em" style="text-anchor: end; visibility: inherit; font-family: &quot;Helvetica Neue&quot;, sans-serif; font-size: 12px; font-weight: 200;" fill="rgb(50, 49, 63)" stroke="none" stroke-width="1px">1.5</text><text x="0" y="79.74585185956879" dx="0em" dy="0.3em" style="text-anchor: end; visibility: hidden; font-family: &quot;Helvetica Neue&quot;, sans-serif; font-size: 12px; font-weight: 200;" fill="rgb(50, 49, 63)" stroke="none" stroke-width="1px">2</text><text x="0" y="56.05131444269861" dx="0em" dy="0.3em" style="text-anchor: end; visibility: inherit; font-family: &quot;Helvetica Neue&quot;, sans-serif; font-size: 12px; font-weight: 200;" fill="rgb(50, 49, 63)" stroke="none" stroke-width="1px">2.5</text><text x="0" y="32.35677702582839" dx="0em" dy="0.3em" style="text-anchor: end; visibility: hidden; font-family: &quot;Helvetica Neue&quot;, sans-serif; font-size: 12px; font-weight: 200;" fill="rgb(50, 49, 63)" stroke="none" stroke-width="1px">3</text><text x="0" y="8.662239608958231" dx="0em" dy="0.3em" style="text-anchor: end; visibility: inherit; font-family: &quot;Helvetica Neue&quot;, sans-serif; font-size: 12px; font-weight: 200;" fill="rgb(50, 49, 63)" stroke="none" stroke-width="1px">3.5</text></g><line x1="41.6875" y1="0" x2="41.6875" y2="176" fill="rgb(0, 0, 0)" stroke="rgb(204, 204, 204)" stroke-width="1px"></line></g></g><g transform="translate(41, 0)" clip-path="url(#clip_0)"><clipPath id="clip_0"><rect width="288" height="176"></rect></clipPath><g><g><g><line x1="13.279841749673086" y1="0" x2="13.279841749673086" y2="176" fill="rgb(0, 0, 0)" stroke="rgb(60, 60, 60)" stroke-width="1px" opacity="0.25"></line><line x1="45.07296673542104" y1="0" x2="45.07296673542104" y2="176" fill="rgb(0, 0, 0)" stroke="rgb(60, 60, 60)" stroke-width="1px" opacity="0.25"></line><line x1="76.86609172116898" y1="0" x2="76.86609172116898" y2="176" fill="rgb(0, 0, 0)" stroke="rgb(60, 60, 60)" stroke-width="1px" opacity="0.25"></line><line x1="108.65921670691695" y1="0" x2="108.65921670691695" y2="176" fill="rgb(0, 0, 0)" stroke="rgb(60, 60, 60)" stroke-width="1px" opacity="0.25"></line><line x1="140.4523416926649" y1="0" x2="140.4523416926649" y2="176" fill="rgb(0, 0, 0)" stroke="rgb(60, 60, 60)" stroke-width="1px" opacity="0.25"></line><line x1="172.24546667841284" y1="0" x2="172.24546667841284" y2="176" fill="rgb(0, 0, 0)" stroke="rgb(60, 60, 60)" stroke-width="1px" opacity="0.25"></line><line x1="204.0385916641608" y1="0" x2="204.0385916641608" y2="176" fill="rgb(0, 0, 0)" stroke="rgb(60, 60, 60)" stroke-width="1px" opacity="0.25"></line><line x1="235.83171664990877" y1="0" x2="235.83171664990877" y2="176" fill="rgb(0, 0, 0)" stroke="rgb(60, 60, 60)" stroke-width="1px" opacity="0.25"></line><line x1="267.6248416356567" y1="0" x2="267.6248416356567" y2="176" fill="rgb(0, 0, 0)" stroke="rgb(60, 60, 60)" stroke-width="1px" opacity="0.25"></line></g><g><line x1="0" y1="174.52400152704956" x2="288.3125" y2="174.52400152704956" fill="rgb(0, 0, 0)" stroke="rgb(60, 60, 60)" stroke-width="1px" opacity="0.25"></line><line x1="0" y1="150.82946411017937" x2="288.3125" y2="150.82946411017937" fill="rgb(0, 0, 0)" stroke="rgb(60, 60, 60)" stroke-width="1px" opacity="0.25"></line><line x1="0" y1="127.13492669330918" x2="288.3125" y2="127.13492669330918" fill="rgb(0, 0, 0)" stroke="rgb(60, 60, 60)" stroke-width="1px" opacity="0.25"></line><line x1="0" y1="103.44038927643899" x2="288.3125" y2="103.44038927643899" fill="rgb(0, 0, 0)" stroke="rgb(60, 60, 60)" stroke-width="1px" opacity="0.25"></line><line x1="0" y1="79.74585185956879" x2="288.3125" y2="79.74585185956879" fill="rgb(0, 0, 0)" stroke="rgb(60, 60, 60)" stroke-width="1px" opacity="0.25"></line><line x1="0" y1="56.05131444269861" x2="288.3125" y2="56.05131444269861" fill="rgb(0, 0, 0)" stroke="rgb(60, 60, 60)" stroke-width="1px" opacity="0.25"></line><line x1="0" y1="32.35677702582839" x2="288.3125" y2="32.35677702582839" fill="rgb(0, 0, 0)" stroke="rgb(60, 60, 60)" stroke-width="1px" opacity="0.25"></line><line x1="0" y1="8.662239608958231" x2="288.3125" y2="8.662239608958231" fill="rgb(0, 0, 0)" stroke="rgb(60, 60, 60)" stroke-width="1px" opacity="0.25"></line></g></g></g><g><g><line x1="0" y1="174.52400152704956" x2="288.3125" y2="174.52400152704956" fill="rgb(0, 0, 0)" stroke="rgb(153, 153, 153)" stroke-width="1.5px"></line></g></g><g><g><line x1="45.07296673542104" y1="0" x2="45.07296673542104" y2="176" fill="rgb(0, 0, 0)" stroke="rgb(153, 153, 153)" stroke-width="1.5px"></line></g></g><g><g><g><g><g><path stroke="rgb(0, 119, 187)" stroke-width="2px" d="M45.07296673542104,120.57387978010203L46.66262298470844,133.429233196677L48.252279233995836,137.85329826592115L49.84193548328324,141.00953060470553L51.431591732570624,143.09872486312042L53.02124798185802,144.39600316791493L54.61090423114542,146.17897610238464L56.20056048043281,147.299964135434L57.79021672972022,148.05320777606198L59.379872979007615,148.73423528457243L60.969529228295016,148.82018886922572L62.55918547758241,149.45981176101836L64.1488417268698,150.2780460812662L65.7384979761572,150.59810387984356L67.3281542254446,149.98615128914392L68.91781047473201,150.4333544658298L70.5074667240194,150.66592911905875L72.0971229733068,151.11915930977207L73.6867792225942,151.53094935159203L75.2764354718816,151.85908227619777L76.86609172116898,152.36842370215692L78.4557479704564,152.17846728111223L80.04540421974379,152.3957476443968L81.63506046903119,151.82718706547593L83.22471671831858,152.43284601459845L84.81437296760599,152.5548371274758L86.40402921689338,152.68722669610645L87.99368546618078,152.69859320267406L89.58334171546817,152.47806854863603L91.17299796475558,152.79248854750074L92.76265421404297,147.20047946333293L94.35231046333037,145.9632318785934L95.94196671261776,147.03036778291852L97.53162296190516,148.20741933585816L99.12127921119256,149.13637307470808L100.71093546047996,149.70258715798312L102.30059170976735,150.79286398151618L103.89024795905475,151.36434279002802L105.47990420834215,151.92542454129907L107.06956045762955,152.2868903519211L108.65921670691695,151.91314604266486L110.24887295620434,152.22876291204696L111.83852920549175,152.74118638078852L113.42818545477914,152.46192691435581L115.01784170406654,152.5107290730382L116.60749795335393,152.38468714442783L118.19715420264134,152.63014370172777L119.78681045192873,153.11537297326166L121.37646670121613,152.99924494283093L122.96612295050352,153.12057368327405L124.55577919979093,153.1536376904556L126.14543544907832,150.98446577913074L127.73509169836572,151.3536047864753L129.32474794765312,152.07139628317645L130.91440419694052,152.4323723257603L132.5040604462279,153.21448489986693L134.09371669551533,152.5628497962616L135.6833729448027,152.74288996418326L137.2730291940901,152.72300087825727L138.8626854433775,153.16256374018715L140.4523416926649,153.8973072542136L142.0419979419523,148.90252026185726L143.6316541912397,149.9964951295491L145.2213104405271,150.7167474812658L146.81096668981448,151.36615037213042L148.40062293910188,151.57567676401936L149.9902791883893,152.14856211462546L151.57993543767668,152.1233625616742L153.16959168696408,152.59499494836328L154.75924793625148,152.70513491582048L156.34890418553888,152.7790188105456L157.9385604348263,153.14520870049222L159.52821668411366,153.26631153151578L161.11787293340106,153.41031396374117L162.7075291826885,153.5598567731426L164.29718543197586,153.84729912462737L165.88684168126326,153.80211654842924L167.47649793055064,154.18051733769414L169.06615417983807,154.12872066527845L170.65581042912547,154.49293664775868L172.24546667841284,154.73723192640125L173.83512292770024,154.65429506551854L175.42477917698767,154.51048994586546L177.01443542627504,154.4457865855435L178.60409167556244,154.5443831664963L180.19374792484987,152.85615318719516L181.78340417413725,153.2034014665707L183.37306042342465,153.60905071026036L184.96271667271202,153.77619027015118L186.55237292199945,154.01973772744563L188.14202917128685,154.17570969686747L189.73168542057422,154.3192354006657L191.32134166986162,154.23775462024406L192.91099791914905,154.507496756294L194.50065416843643,154.35724872944002L196.09031041772383,154.14257223355636L197.6799666670112,154.44003235137902L199.26962291629863,154.4655910667787L200.85927916558603,154.23922084669377L202.4489354148734,154.5313491535051L204.0385916641608,154.74333223793596L205.6282479134482,154.96177617818796L207.2179041627356,155.01379694122454L208.807560412023,154.82136676909056L210.3972166613104,154.8135988867864L211.9868729105978,154.39161246873275L213.5765291598852,152.80824259479044L215.16618540917258,152.8971508962438L216.75584165846,152.8620708317875L218.3454979077474,153.28413166278727L219.9351541570348,141.3980913756151L221.5248104063222,143.78894700084996L223.1144666556096,146.2301543054649L224.704122904897,148.04436973419195L226.29377915418436,149.1676969612543L227.88343540347176,150.5108025810713L229.4730916527592,151.38864545082023L231.06274790204657,151.76106401565187L232.65240415133397,152.31415025134555L234.24206040062137,152.9330148761253L235.83171664990877,153.22243989449026L237.42137289919617,153.6580022396117L239.01102914848354,153.9268945250221L240.60068539777095,154.2560775137637L242.19034164705837,154.31355275251232L243.77999789634575,154.39334604298898L245.36965414563315,154.25626955366033L246.95931039492058,154.49681473446273L248.54896664420795,154.57510986491187L250.13862289349535,154.67245533088231L251.72827914278272,154.45618107543444L253.31793539207015,154.43181706434473L254.90759164135756,154.73736894459518L256.4972478906449,154.72735783342614L258.0869041399323,154.6181411091016L259.67656038921973,154.92240688473333" style="fill: none;" fill="none"></path></g><g><path stroke="rgb(255, 112, 67)" stroke-width="2px" d="M45.07296673542104,-13.44630246717449L46.66262298470844,52.21749893914247L48.252279233995836,79.51224029662984L49.84193548328324,94.82678608797148L51.431591732570624,104.63522849636466L53.02124798185802,111.34064798748648L54.61090423114542,116.1891976317412L56.20056048043281,119.82465150569485L57.79021672972022,122.62822240165708L59.379872979007615,124.840891514234L60.969529228295016,126.62133749240834L62.55918547758241,128.06134369917112L64.1488417268698,129.24903740139683L65.7384979761572,130.2621040316433L67.3281542254446,131.0999595465653L68.91781047473201,131.76958933724202L70.5074667240194,132.34743103566666L72.0971229733068,132.84888309429795L73.6867792225942,133.3075742829312L75.2764354718816,133.68805924406445L76.86609172116898,134.01047800541772L78.4557479704564,134.3142976419316L80.04540421974379,134.52723840747285L81.63506046903119,134.77288969050716L83.22471671831858,134.97346691694753L84.81437296760599,135.16108370287918L86.40402921689338,135.3181538450918L87.99368546618078,135.42355428698383L89.58334171546817,135.55099304743825L91.17299796475558,135.66483976361292L92.76265421404297,135.7735518325038L94.35231046333037,135.8756144303134L95.94196671261776,136.01183027287016L97.53162296190516,136.09731698066443L99.12127921119256,136.21052551539893L100.71093546047996,136.29626146003548L102.30059170976735,136.36506204539526L103.89024795905475,136.4242924040861L105.47990420834215,136.50643188053945L107.06956045762955,136.5911107145205L108.65921670691695,136.6409016291174L110.24887295620434,136.70247601477575L111.83852920549175,136.7784067735804L113.42818545477914,136.81891358636398L115.01784170406654,136.89488448940602L116.60749795335393,136.93393266294413L118.19715420264134,137.01606986409791L119.78681045192873,137.06819758173071L121.37646670121613,137.09873310790852L122.96612295050352,137.1590269170929L124.55577919979093,137.20300752427494L126.14543544907832,137.24453838964502L127.73509169836572,137.27329753962522L129.32474794765312,137.32401017287185L130.91440419694052,137.33852338019685L132.5040604462279,137.3405481798005L134.09371669551533,137.3805744300565L135.6833729448027,137.43782994114008L137.2730291940901,137.493169980481L138.8626854433775,137.51854529302375L140.4523416926649,137.55893896594517L142.0419979419523,137.57661819514686L143.6316541912397,137.6224683663283L145.2213104405271,137.65460619824717L146.81096668981448,137.683788339123L148.40062293910188,137.72668646206782L149.9902791883893,137.78371365829298L151.57993543767668,137.834631590226L153.16959168696408,137.8741372386736L154.75924793625148,137.91656506554676L156.34890418553888,137.9501379396887L157.9385604348263,137.97901721556087L159.52821668411366,138.0170787221913L161.11787293340106,138.03628618702993L162.7075291826885,138.06527581202272L164.29718543197586,138.09677459120772L165.88684168126326,138.1301296038509L167.47649793055064,138.18254212489492L169.06615417983807,138.2224976793908L170.65581042912547,138.23372737963132L172.24546667841284,138.25581932158696L173.83512292770024,138.2920203839114L175.42477917698767,138.3422071463617L177.01443542627504,138.37246428558691L178.60409167556244,138.39365073907663L180.19374792484987,138.43326667329876L181.78340417413725,138.44712503659798L183.37306042342465,138.4717436312855L184.96271667271202,138.50356299974445L186.55237292199945,138.52804834181654L188.14202917128685,138.56672779551357L189.73168542057422,138.59183102210739L191.32134166986162,138.60288295952876L192.91099791914905,138.61211668423397L194.50065416843643,138.62321165185415L196.09031041772383,138.6416500353384L197.6799666670112,138.6618005863029L199.26962291629863,138.70682143348841L200.85927916558603,138.7147799644595L202.4489354148734,138.7464868405943L204.0385916641608,138.7486883961057L205.6282479134482,138.79087152537983L207.2179041627356,138.8001053456901L208.807560412023,138.84327597060698L210.3972166613104,138.8537771778851L211.9868729105978,138.87526218991312L213.5765291598852,138.90650919656997L215.16618540917258,138.9067578849835L216.75584165846,138.93381443706596L218.3454979077474,138.97195871988487L219.9351541570348,138.9896789325544L221.5248104063222,139.00904801047693L223.1144666556096,138.9966263006616L224.704122904897,138.97267317053445L226.29377915418436,139.00992547774632L227.88343540347176,139.0642020296148L229.4730916527592,139.0782978282884L231.06274790204657,139.09960932323904L232.65240415133397,139.11769596561746L234.24206040062137,139.12376359904758L235.83171664990877,139.12120579328183L237.42137289919617,139.15260277299325L239.01102914848354,139.1589088787435L240.60068539777095,139.17139182741596L242.19034164705837,139.1933013047479L243.77999789634575,139.22823686943428L245.36965414563315,139.23910691544566L246.95931039492058,139.259075665296L248.54896664420795,139.30334796928935L250.13862289349535,139.33592995520638L251.72827914278272,139.35956576913742L253.31793539207015,139.3623483024338L254.90759164135756,139.3807646463959L256.4972478906449,139.38230630138887L258.0869041399323,139.37837651599747L259.67656038921973,139.38467323740528" style="fill: none;" fill="none"></path></g></g></g></g><g opacity="0.2"><g><g><g><path stroke="rgb(0, 119, 187)" stroke-width="2px" d="M45.07296673542104,120.57387978010203L46.66262298470844,143.61067310260432L48.252279233995836,144.13221455235688L49.84193548328324,147.05705194880818L51.431591732570624,147.92375496568445L53.02124798185802,147.79634815340697L54.61090423114542,151.2924372929037L56.20056048043281,150.73400927458977L57.79021672972022,150.4773116358507L59.379872979007615,151.0094326585067L60.969529228295016,149.11569193338912L62.55918547758241,151.7079881156022L64.1488417268698,153.20385442096622L65.7384979761572,151.75799358053268L67.3281542254446,147.7450532544809L68.91781047473201,152.08463842354246L70.5074667240194,151.53027784214774L72.0971229733068,152.8121630702517L73.6867792225942,153.0753474234943L75.2764354718816,153.09363535428156L76.86609172116898,154.28955078372286L78.4557479704564,151.4605735542486L80.04540421974379,153.21819072380208L81.63506046903119,149.67242518632005L83.22471671831858,154.73045247194236L84.81437296760599,153.0179767906701L86.40402921689338,153.19015224284453L87.99368546618078,152.74179358693974L89.58334171546817,151.63960433239737L91.17299796475558,153.98831894763148L92.76265421404297,125.92732726885644L94.35231046333037,141.25559040644353L95.94196671261776,151.09135902942637L97.53162296190516,152.68723061543344L99.12127921119256,152.67226866171035L100.71093546047996,151.8579409566918L102.30059170976735,154.94336443470664L103.89024795905475,153.53996876555362L105.47990420834215,154.06154834752726L107.06956045762955,153.66308640910756L108.65921670691695,150.49016925588987L110.24887295620434,153.4304502018939L111.83852920549175,154.69222845103283L113.42818545477914,151.39863976563066L115.01784170406654,152.69654617582208L116.60749795335393,151.9047715611381L118.19715420264134,153.56474623545336L119.78681045192873,154.96294462409844L121.37646670121613,152.55707122171302L122.96612295050352,153.58255115810647L124.55577919979093,153.27953416914497L126.14543544907832,142.7249830642203L127.73509169836572,152.7591649321157L129.32474794765312,154.8045137191803L130.91440419694052,153.80685335654914L132.5040604462279,156.1925209186555L134.09371669551533,150.08162911265913L135.6833729448027,153.4284263695657L137.2730291940901,152.6472694600063L138.8626854433775,154.836282096285L140.4523416926649,156.6949821348042L142.0419979419523,129.8839208828363L143.6316541912397,154.1620126271282L145.2213104405271,153.4592456780559L146.81096668981448,153.8388759484613L148.40062293910188,152.3734885862064L149.9902791883893,154.32993280588676L151.57993543767668,152.02741043347135L153.16959168696408,154.39082572609865L154.75924793625148,153.12451397956016L156.34890418553888,153.0603459252456L157.9385604348263,154.53954703767658L159.52821668411366,153.72743382609184L161.11787293340106,153.95863089503442L162.7075291826885,154.12926975992826L164.29718543197586,154.9417911275094L165.88684168126326,153.63007520405532L167.47649793055064,155.6213510892702L169.06615417983807,153.9314948766433L170.65581042912547,155.87975902874163L172.24546667841284,155.667433172339L173.83512292770024,154.33849702028894L175.42477917698767,153.9629243006714L177.01443542627504,154.19941609913144L178.60409167556244,154.91980860818714L180.19374792484987,146.42789289723387L181.78340417413725,154.52561606622817L183.37306042342465,155.15363821269133L184.96271667271202,154.41260628587943L186.55237292199945,154.9470915062448L188.14202917128685,154.76960296459458L189.73168542057422,154.8657371186419L191.32134166986162,153.92750087955733L192.91099791914905,155.53459181239995L194.50065416843643,153.78515047351507L196.09031041772383,153.32515019173343L197.6799666670112,155.57266895364296L199.26962291629863,154.562910790786L200.85927916558603,153.3772727010882L202.4489354148734,155.64368386010494L204.0385916641608,155.5504985978241L205.6282479134482,155.79354348909845L207.2179041627356,155.21187600046983L208.807560412023,154.0886518829152L210.3972166613104,154.78402118109062L211.9868729105978,152.78481803079666L213.5765291598852,146.77925730565946L215.16618540917258,153.2356863517728L216.75584165846,152.72849674020546L218.3454979077474,154.89120944234867L219.9351541570348,96.13970720555645L221.5248104063222,152.89258957380738L223.1144666556096,155.52552058068736L224.704122904897,154.95234386662764L226.29377915418436,153.44498140274882L227.88343540347176,155.62493551805528L229.4730916527592,154.73120099331985L231.06274790204657,153.17911932020107L232.65240415133397,154.4201324564845L234.24206040062137,155.2894609474L235.83171664990877,154.32448131057137L237.42137289919617,155.31648963065018L239.01102914848354,154.95075361177658L240.60068539777095,155.5095050478178L242.19034164705837,154.5324007769782L243.77999789634575,154.69717434134228L245.36965414563315,153.7343244596783L246.95931039492058,155.41273676905635L248.54896664420795,154.87323363085278L250.13862289349535,155.04311691284667L251.72827914278272,153.63267525661377L253.31793539207015,154.33904640673396L254.90759164135756,155.90081648862565L256.4972478906449,154.6892386024363L258.0869041399323,154.20227742801978L259.67656038921973,156.0809573381003" style="fill: none;" fill="none"></path></g><g><path stroke="rgb(255, 112, 67)" stroke-width="2px" d="M45.07296673542104,-13.44630246717449L46.66262298470844,104.2232296529455L48.252279233995836,118.25068409462276L49.84193548328324,124.17033010097225L51.431591732570624,127.28799507809455L53.02124798185802,128.91647536237537L54.61090423114542,130.0945519738559L56.20056048043281,130.9615346270204L57.79021672972022,131.65073074228815L59.379872979007615,132.23304365406682L60.969529228295016,132.74239974071543L62.55918547758241,133.12274463719066L64.1488417268698,133.49594327296748L65.7384979761572,133.9334582550299L67.3281542254446,134.16836121094335L68.91781047473201,134.24217671720078L70.5074667240194,134.49494250025126L72.0971229733068,134.72201564009515L73.6867792225942,135.02787277337768L75.2764354718816,135.11957935286185L76.86609172116898,135.22657271610086L78.4557479704564,135.46250947889794L80.04540421974379,135.33325537235297L81.63506046903119,135.70387231552968L83.22471671831858,135.7343696185971L84.81437296760599,135.87337145070342L86.40402921689338,135.91483671040794L87.99368546618078,135.8241469901536L89.58334171546817,136.03553225176867L91.17299796475558,136.09783182724848L92.76265421404297,136.18711489223492L94.35231046333037,136.26395555470106L95.94196671261776,136.53020037176447L97.53162296190516,136.42267598203878L99.12127921119256,136.64143347306998L100.71093546047996,136.62262440192745L102.30059170976735,136.62697429974386L103.89024795905475,136.64978301719032L105.47990420834215,136.81914939574241L107.06956045762955,136.91350545844205L108.65921670691695,136.83047325310994L110.24887295620434,136.93691581759947L111.83852920549175,137.067511613406L113.42818545477914,136.9731442522705L115.01784170406654,137.18414819167438L116.60749795335393,137.08261197296872L118.19715420264134,137.3288161893779L119.78681045192873,137.26668044121848L121.37646670121613,137.21500139547226L122.96612295050352,137.3886046874819L124.55577919979093,137.37047069788358L126.14543544907832,137.4026740647699L127.73509169836572,137.38280294065402L129.32474794765312,137.51710744804038L130.91440419694052,137.393785020336L132.5040604462279,137.34825797293013L134.09371669551533,137.53298175046132L135.6833729448027,137.65584094229436L137.2730291940901,137.703887540903L138.8626854433775,137.6151665731019L140.4523416926649,137.71274551463824L142.0419979419523,137.64393521547865L143.6316541912397,137.79705161861654L145.2213104405271,137.77697712265467L146.81096668981448,137.79490491579804L148.40062293910188,137.89002927213798L149.9902791883893,138.00085562975158L151.57993543767668,138.02851137619348L153.16959168696408,138.02456257285104L154.75924793625148,138.07811715895448L156.34890418553888,138.0779731038969L157.9385604348263,138.08898060505965L159.52821668411366,138.16200522080499L161.11787293340106,138.10942230018782L162.7075291826885,138.1756593805742L164.29718543197586,138.21671224736886L165.88684168126326,138.25713522636283L167.47649793055064,138.38211287492467L169.06615417983807,138.37463613497658L170.65581042912547,138.27648662242797L172.24546667841284,138.3399386383682L173.83512292770024,138.42986288959125L175.42477917698767,138.53330289474385L177.01443542627504,138.48767416141501L178.60409167556244,138.4743222348058L180.19374792484987,138.58411196092678L181.78340417413725,138.4998934198266L183.37306042342465,138.56548366475843L184.96271667271202,138.6247213641129L186.55237292199945,138.62128099038537L188.14202917128685,138.71400725370833L189.73168542057422,138.68741638484875L191.32134166986162,138.64496533661307L192.91099791914905,138.64727586675193L194.50065416843643,138.66545787470275L196.09031041772383,138.71185772628087L197.6799666670112,138.73852768419164L199.26962291629863,138.87824696697675L200.85927916558603,138.74508360161497L202.4489354148734,138.86721686894228L204.0385916641608,138.75707124209086L205.6282479134482,138.9514919022219L207.2179041627356,138.83526489225443L208.807560412023,139.00765642701518L210.3972166613104,138.89376254405832L211.9868729105978,138.95707050494102L213.5765291598852,139.02548818345352L215.16618540917258,138.90770481394262L216.75584165846,139.0368374623018L218.3454979077474,139.11720041215563L219.9351541570348,139.05715205002627L221.5248104063222,139.08279949948928L223.1144666556096,138.9493282517496L224.704122904897,138.88146702120451L226.29377915418436,139.15177080136027L227.88343540347176,139.27087043865197L229.4730916527592,139.13197029246865L231.06274790204657,139.18075693862784L232.65240415133397,139.18656433467365L234.24206040062137,139.1468672801854L235.83171664990877,139.1114664559431L237.42137289919617,139.27215281112512L239.01102914848354,139.18292058910015L240.60068539777095,139.21892305505344L242.19034164705837,139.2767258530503L243.77999789634575,139.3612607503553L245.36965414563315,139.28049670602752L246.95931039492058,139.33511052049533L248.54896664420795,139.47192328064858L250.13862289349535,139.4599921323521L251.72827914278272,139.4495636760286L253.31793539207015,139.37294333306227L254.90759164135756,139.45088841763632L256.4972478906449,139.38817644924666L258.0869041399323,139.36341310239175L259.67656038921973,139.40864921507352" style="fill: none;" fill="none"></path></g></g></g></g></g></g><g transform="translate(41, 176)" clip-path="url(#clip_1)"><clipPath id="clip_1"><rect width="288" height="24"></rect></clipPath><g><g><line x1="13.279841749673086" y1="0" x2="13.279841749673086" y2="5" style="visibility: inherit;" fill="rgb(0, 0, 0)" stroke="rgb(204, 204, 204)" stroke-width="1px"></line><line x1="45.07296673542104" y1="0" x2="45.07296673542104" y2="5" style="visibility: inherit;" fill="rgb(0, 0, 0)" stroke="rgb(204, 204, 204)" stroke-width="1px"></line><line x1="76.86609172116898" y1="0" x2="76.86609172116898" y2="5" style="visibility: inherit;" fill="rgb(0, 0, 0)" stroke="rgb(204, 204, 204)" stroke-width="1px"></line><line x1="108.65921670691695" y1="0" x2="108.65921670691695" y2="5" style="visibility: inherit;" fill="rgb(0, 0, 0)" stroke="rgb(204, 204, 204)" stroke-width="1px"></line><line x1="140.4523416926649" y1="0" x2="140.4523416926649" y2="5" style="visibility: inherit;" fill="rgb(0, 0, 0)" stroke="rgb(204, 204, 204)" stroke-width="1px"></line><line x1="172.24546667841284" y1="0" x2="172.24546667841284" y2="5" style="visibility: inherit;" fill="rgb(0, 0, 0)" stroke="rgb(204, 204, 204)" stroke-width="1px"></line><line x1="204.0385916641608" y1="0" x2="204.0385916641608" y2="5" style="visibility: inherit;" fill="rgb(0, 0, 0)" stroke="rgb(204, 204, 204)" stroke-width="1px"></line><line x1="235.83171664990877" y1="0" x2="235.83171664990877" y2="5" style="visibility: inherit;" fill="rgb(0, 0, 0)" stroke="rgb(204, 204, 204)" stroke-width="1px"></line><line x1="267.6248416356567" y1="0" x2="267.6248416356567" y2="5" style="visibility: inherit;" fill="rgb(0, 0, 0)" stroke="rgb(204, 204, 204)" stroke-width="1px"></line></g><g transform="translate(0, 8)"><text x="13.279841749673086" y="0" dx="0em" dy="0.95em" style="text-anchor: middle; visibility: inherit; font-family: &quot;Helvetica Neue&quot;, sans-serif; font-size: 12px; font-weight: 200;" fill="rgb(50, 49, 63)" stroke="none" stroke-width="1px">-20</text><text x="45.07296673542104" y="0" dx="0em" dy="0.95em" style="text-anchor: middle; visibility: inherit; font-family: &quot;Helvetica Neue&quot;, sans-serif; font-size: 12px; font-weight: 200;" fill="rgb(50, 49, 63)" stroke="none" stroke-width="1px">0</text><text x="76.86609172116898" y="0" dx="0em" dy="0.95em" style="text-anchor: middle; visibility: inherit; font-family: &quot;Helvetica Neue&quot;, sans-serif; font-size: 12px; font-weight: 200;" fill="rgb(50, 49, 63)" stroke="none" stroke-width="1px">20</text><text x="108.65921670691695" y="0" dx="0em" dy="0.95em" style="text-anchor: middle; visibility: inherit; font-family: &quot;Helvetica Neue&quot;, sans-serif; font-size: 12px; font-weight: 200;" fill="rgb(50, 49, 63)" stroke="none" stroke-width="1px">40</text><text x="140.4523416926649" y="0" dx="0em" dy="0.95em" style="text-anchor: middle; visibility: inherit; font-family: &quot;Helvetica Neue&quot;, sans-serif; font-size: 12px; font-weight: 200;" fill="rgb(50, 49, 63)" stroke="none" stroke-width="1px">60</text><text x="172.24546667841284" y="0" dx="0em" dy="0.95em" style="text-anchor: middle; visibility: inherit; font-family: &quot;Helvetica Neue&quot;, sans-serif; font-size: 12px; font-weight: 200;" fill="rgb(50, 49, 63)" stroke="none" stroke-width="1px">80</text><text x="204.0385916641608" y="0" dx="0em" dy="0.95em" style="text-anchor: middle; visibility: inherit; font-family: &quot;Helvetica Neue&quot;, sans-serif; font-size: 12px; font-weight: 200;" fill="rgb(50, 49, 63)" stroke="none" stroke-width="1px">100</text><text x="235.83171664990877" y="0" dx="0em" dy="0.95em" style="text-anchor: middle; visibility: inherit; font-family: &quot;Helvetica Neue&quot;, sans-serif; font-size: 12px; font-weight: 200;" fill="rgb(50, 49, 63)" stroke="none" stroke-width="1px">120</text><text x="267.6248416356567" y="0" dx="0em" dy="0.95em" style="text-anchor: middle; visibility: inherit; font-family: &quot;Helvetica Neue&quot;, sans-serif; font-size: 12px; font-weight: 200;" fill="rgb(50, 49, 63)" stroke="none" stroke-width="1px">140</text></g><line x1="0" y1="0" x2="288.3125" y2="0" fill="rgb(0, 0, 0)" stroke="rgb(204, 204, 204)" stroke-width="1px"></line></g></g></g></g></svg>