<svg viewBox="0 0 330 200" xmlns="http://www.w3.org/2000/svg"><g><g><g><g><g><line x1="41.6875" y1="160.6522346192531" x2="36.6875" y2="160.6522346192531" style="visibility: inherit;" fill="rgb(0, 0, 0)" stroke="rgb(204, 204, 204)" stroke-width="1px"></line><line x1="41.6875" y1="139.1594152692909" x2="36.6875" y2="139.1594152692909" style="visibility: inherit;" fill="rgb(0, 0, 0)" stroke="rgb(204, 204, 204)" stroke-width="1px"></line><line x1="41.6875" y1="117.66659591932866" x2="36.6875" y2="117.66659591932866" style="visibility: inherit;" fill="rgb(0, 0, 0)" stroke="rgb(204, 204, 204)" stroke-width="1px"></line><line x1="41.6875" y1="96.17377656936644" x2="36.6875" y2="96.17377656936644" style="visibility: inherit;" fill="rgb(0, 0, 0)" stroke="rgb(204, 204, 204)" stroke-width="1px"></line><line x1="41.6875" y1="74.68095721940423" x2="36.6875" y2="74.68095721940423" style="visibility: inherit;" fill="rgb(0, 0, 0)" stroke="rgb(204, 204, 204)" stroke-width="1px"></line><line x1="41.6875" y1="53.188137869441974" x2="36.6875" y2="53.188137869441974" style="visibility: inherit;" fill="rgb(0, 0, 0)" stroke="rgb(204, 204, 204)" stroke-width="1px"></line><line x1="41.6875" y1="31.69531851947977" x2="36.6875" y2="31.69531851947977" style="visibility: inherit;" fill="rgb(0, 0, 0)" stroke="rgb(204, 204, 204)" stroke-width="1px"></line><line x1="41.6875" y1="10.202499169517552" x2="36.6875" y2="10.202499169517552" style="visibility: inherit;" fill="rgb(0, 0, 0)" stroke="rgb(204, 204, 204)" stroke-width="1px"></line></g><g transform="translate(31.6875, 0)"><text x="0" y="160.6522346192531" dx="0em" dy="0.3em" style="text-anchor: end; visibility: inherit; font-family: &quot;Helvetica Neue&quot;, sans-serif; font-size: 12px; font-weight: 200;" fill="rgb(50, 49, 63)" stroke="none" stroke-width="1px">0.3</text><text x="0" y="139.1594152692909" dx="0em" dy="0.3em" style="text-anchor: end; visibility: hidden; font-family: &quot;Helvetica Neue&quot;, sans-serif; font-size: 12px; font-weight: 200;" fill="rgb(50, 49, 63)" stroke="none" stroke-width="1px">0.4</text><text x="0" y="117.66659591932866" dx="0em" dy="0.3em" style="text-anchor: end; visibility: inherit; font-family: &quot;Helvetica Neue&quot;, sans-serif; font-size: 12px; font-weight: 200;" fill="rgb(50, 49, 63)" stroke="none" stroke-width="1px">0.5</text><text x="0" y="96.17377656936644" dx="0em" dy="0.3em" style="text-anchor: end; visibility: hidden; font-family: &quot;Helvetica Neue&quot;, sans-serif; font-size: 12px; font-weight: 200;" fill="rgb(50, 49, 63)" stroke="none" stroke-width="1px">0.6</text><text x="0" y="74.68095721940423" dx="0em" dy="0.3em" style="text-anchor: end; visibility: inherit; font-family: &quot;Helvetica Neue&quot;, sans-serif; font-size: 12px; font-weight: 200;" fill="rgb(50, 49, 63)" stroke="none" stroke-width="1px">0.7</text><text x="0" y="53.188137869441974" dx="0em" dy="0.3em" style="text-anchor: end; visibility: hidden; font-family: &quot;Helvetica Neue&quot;, sans-serif; font-size: 12px; font-weight: 200;" fill="rgb(50, 49, 63)" stroke="none" stroke-width="1px">0.8</text><text x="0" y="31.69531851947977" dx="0em" dy="0.3em" style="text-anchor: end; visibility: inherit; font-family: &quot;Helvetica Neue&quot;, sans-serif; font-size: 12px; font-weight: 200;" fill="rgb(50, 49, 63)" stroke="none" stroke-width="1px">0.9</text><text x="0" y="10.202499169517552" dx="0em" dy="0.3em" style="text-anchor: end; visibility: hidden; font-family: &quot;Helvetica Neue&quot;, sans-serif; font-size: 12px; font-weight: 200;" fill="rgb(50, 49, 63)" stroke="none" stroke-width="1px">1</text></g><line x1="41.6875" y1="0" x2="41.6875" y2="176" fill="rgb(0, 0, 0)" stroke="rgb(204, 204, 204)" stroke-width="1px"></line></g></g><g transform="translate(41, 0)" clip-path="url(#clip_0)"><clipPath id="clip_0"><rect width="288" height="176"></rect></clipPath><g><g><g><line x1="4.686441015276144" y1="0" x2="4.686441015276144" y2="176" fill="rgb(0, 0, 0)" stroke="rgb(60, 60, 60)" stroke-width="1px" opacity="0.25"></line><line x1="36.10590377885632" y1="0" x2="36.10590377885632" y2="176" fill="rgb(0, 0, 0)" stroke="rgb(60, 60, 60)" stroke-width="1px" opacity="0.25"></line><line x1="67.52536654243652" y1="0" x2="67.52536654243652" y2="176" fill="rgb(0, 0, 0)" stroke="rgb(60, 60, 60)" stroke-width="1px" opacity="0.25"></line><line x1="98.94482930601669" y1="0" x2="98.94482930601669" y2="176" fill="rgb(0, 0, 0)" stroke="rgb(60, 60, 60)" stroke-width="1px" opacity="0.25"></line><line x1="130.36429206959687" y1="0" x2="130.36429206959687" y2="176" fill="rgb(0, 0, 0)" stroke="rgb(60, 60, 60)" stroke-width="1px" opacity="0.25"></line><line x1="161.78375483317706" y1="0" x2="161.78375483317706" y2="176" fill="rgb(0, 0, 0)" stroke="rgb(60, 60, 60)" stroke-width="1px" opacity="0.25"></line><line x1="193.20321759675724" y1="0" x2="193.20321759675724" y2="176" fill="rgb(0, 0, 0)" stroke="rgb(60, 60, 60)" stroke-width="1px" opacity="0.25"></line><line x1="224.62268036033748" y1="0" x2="224.62268036033748" y2="176" fill="rgb(0, 0, 0)" stroke="rgb(60, 60, 60)" stroke-width="1px" opacity="0.25"></line><line x1="256.04214312391764" y1="0" x2="256.04214312391764" y2="176" fill="rgb(0, 0, 0)" stroke="rgb(60, 60, 60)" stroke-width="1px" opacity="0.25"></line><line x1="287.4616058874978" y1="0" x2="287.4616058874978" y2="176" fill="rgb(0, 0, 0)" stroke="rgb(60, 60, 60)" stroke-width="1px" opacity="0.25"></line></g><g><line x1="0" y1="160.6522346192531" x2="288.3125" y2="160.6522346192531" fill="rgb(0, 0, 0)" stroke="rgb(60, 60, 60)" stroke-width="1px" opacity="0.25"></line><line x1="0" y1="139.1594152692909" x2="288.3125" y2="139.1594152692909" fill="rgb(0, 0, 0)" stroke="rgb(60, 60, 60)" stroke-width="1px" opacity="0.25"></line><line x1="0" y1="117.66659591932866" x2="288.3125" y2="117.66659591932866" fill="rgb(0, 0, 0)" stroke="rgb(60, 60, 60)" stroke-width="1px" opacity="0.25"></line><line x1="0" y1="96.17377656936644" x2="288.3125" y2="96.17377656936644" fill="rgb(0, 0, 0)" stroke="rgb(60, 60, 60)" stroke-width="1px" opacity="0.25"></line><line x1="0" y1="74.68095721940423" x2="288.3125" y2="74.68095721940423" fill="rgb(0, 0, 0)" stroke="rgb(60, 60, 60)" stroke-width="1px" opacity="0.25"></line><line x1="0" y1="53.188137869441974" x2="288.3125" y2="53.188137869441974" fill="rgb(0, 0, 0)" stroke="rgb(60, 60, 60)" stroke-width="1px" opacity="0.25"></line><line x1="0" y1="31.69531851947977" x2="288.3125" y2="31.69531851947977" fill="rgb(0, 0, 0)" stroke="rgb(60, 60, 60)" stroke-width="1px" opacity="0.25"></line><line x1="0" y1="10.202499169517552" x2="288.3125" y2="10.202499169517552" fill="rgb(0, 0, 0)" stroke="rgb(60, 60, 60)" stroke-width="1px" opacity="0.25"></line></g></g></g><g><g><line x1="0" y1="225.13069266913976" x2="288.3125" y2="225.13069266913976" fill="rgb(0, 0, 0)" stroke="rgb(153, 153, 153)" stroke-width="1.5px"></line></g></g><g><g><line x1="36.10590377885632" y1="0" x2="36.10590377885632" y2="176" fill="rgb(0, 0, 0)" stroke="rgb(153, 153, 153)" stroke-width="1.5px"></line></g></g><g><g><g><g><g><path stroke="rgb(0, 119, 187)" stroke-width="2px" d="M36.10590377885632,74.05408007631493L37.67687691703534,58.91196078627385L39.24785005521434,53.806783429885286L40.81882319339336,50.00151020174593L42.38979633157237,46.905473430651114L43.96076946975138,45.37601201160206L45.53174260793039,43.36714769019727L47.10271574610939,41.97133834828301L48.6736888842884,40.93642436371846L50.24466202246741,40.499243542818164L51.81563516064642,40.149961059414096L53.38660829882543,39.288929800035106L54.95758143700444,37.942540370557595L56.52855457518345,37.46301550254313L58.099527713362455,38.165944311246705L59.67050085154147,37.531300346635476L61.241473989720475,37.31925526771914L62.81244712789949,37.02045759340092L64.38342026607849,36.408473397960364L65.9543934042575,36.246200103242046L67.52536654243652,35.66784021107094L69.09633968061553,35.94217657755473L70.66731281879453,35.48511176012002L72.23828595697354,35.9278666621548L73.80925909515256,35.680090757919544L75.38023223333157,35.59614752960684L76.95120537151057,35.753675323189725L78.52217850968958,35.4492781483963L80.09315164786858,35.61863179388109L81.6641247860476,35.28658404178378L83.23509792422661,40.97007461700673L84.80607106240561,42.35734834977839L86.37704420058462,41.182229801958584L87.94801733876363,40.04676204258499L89.51899047694265,38.97993375794917L91.08996361512165,38.35869488710637L92.66093675330066,36.99109464008478L94.23190989147967,36.63460743041617L95.80288302965869,35.94244635268774L97.3738561678377,35.50605624086427L98.94482930601669,36.07324287837048L100.5158024441957,35.70279936074644L102.08677558237471,35.316277552906655L103.65774872055373,35.53173547968785L105.22872185873273,35.60923597296161L106.79969499691174,35.83826440577144L108.37066813509075,35.516711483769626L109.94164127326977,34.814987282473396L111.51261441144878,35.09745494223668L113.08358754962778,34.91136861080656L114.65456068780679,34.745360283194316L116.2255338259858,37.35208351284092L117.79650696416482,36.80879626902251L119.3674801023438,35.83832479517076L120.93845324052282,35.144221186706716L122.50942637870183,34.50135749710492L124.08039951688085,35.20297434355169L125.65137265505986,35.06944977435461L127.22234579323886,35.14996950268355L128.79331893141787,34.4500283371421L130.36429206959687,33.48587884918868L131.9352652077759,38.45942548066617L133.5062383459549,37.46228791467533L135.0772114841339,36.76568927734411L136.64818462231293,36.28849163106662L138.21915776049192,36.00368795497644L139.79013089867095,35.3683273668548L141.36110403684995,35.61020561016278L142.93207717502895,35.093943585500995L144.50305031320798,35.22524847125692L146.07402345138695,35.16159942724212L147.64499658956598,34.589630773778595L149.21596972774498,34.75132435086559L150.786942865924,34.488218042141824L152.357916004103,34.22395523802459L153.928889142282,33.77250822670308L155.49986228046103,33.712995679287275L157.07083541864003,33.16292891027672L158.64180855681903,33.230208862296536L160.21278169499806,32.96683267946247L161.78375483317706,32.81412135311615L163.35472797135608,33.04708740688989L164.92570110953508,33.101208206476855L166.49667424771408,33.21858024925871L168.0676473858931,33.14389374322607L169.6386205240721,35.003333877503366L171.20959366225114,34.68780959518065L172.78056680043014,34.046744091848126L174.35153993860914,33.688036952358516L175.92251307678816,33.31080676856007L177.49348621496716,33.19831138660402L179.0644593531462,33.276857542938245L180.6354324913252,33.28318615401696L182.2064056295042,32.93428232712574L183.77737876768322,32.993238158451334L185.3483519058622,33.263456284967475L186.9193250440412,32.97453888023267L188.49029818222022,32.82022466506413L190.06127132039921,33.331328946246686L191.63224445857824,32.711632125883426L193.20321759675724,32.33259479821422L194.77419073493624,32.20004239808304L196.34516387311527,32.09506089718147L197.91613701129427,32.384457395261904L199.4871101494733,32.520522627725995L201.0580832876523,33.22435324669863L202.62905642583132,35.160194594663466L204.20002956401032,34.7747890989765L205.77100270218935,34.842089793179525L207.34197584036835,34.522850096203314L208.91294897854738,46.37763293520399L210.48392211672638,43.78938857873629L212.05489525490538,41.47871975566986L213.6258683930844,39.38789075505605L215.1968415312634,38.104496033355105L216.76781466944243,36.62237143760535L218.33878780762143,35.85832478923339L219.90976094580043,35.551233321149226L221.48073408397946,34.7305756835992L223.05170722215846,34.06198907463548L224.62268036033748,33.86775614244044L226.19365349851645,33.34138181335982L227.76462663669545,33.31566095153454L229.33559977487448,33.053139160875276L230.90657291305348,33.12462695544505L232.47754605123248,32.86458605129425L234.0485191894115,32.9194129479543L235.6194923275905,32.646173948029514L237.19046546576953,32.7278021375148L238.76143860394853,32.662063349528125L240.33241174212753,32.74038654350167L241.90338488030656,32.87692688248515L243.47435801848556,32.538016614821544L245.0453311566646,32.90292082236155L246.6163042948436,32.93114566198571L248.1872774330226,32.33880435546294" style="fill: none;" fill="none"></path></g><g><path stroke="rgb(255, 112, 67)" stroke-width="2px" d="M36.10590377885632,163.39280347128127L37.67687691703534,121.42910706801302L39.24785005521434,101.76901729557838L40.81882319339336,89.93841477013476L42.38979633157237,82.13084845627016L43.96076946975138,76.60683463304602L45.53174260793039,72.51368108275616L47.10271574610939,69.42265846641973L48.6736888842884,67.00662797765236L50.24466202246741,65.03369586276999L51.81563516064642,63.42415247098262L53.38660829882543,62.11066232720273L54.95758143700444,61.00324327343766L56.52855457518345,60.081532543672154L58.099527713362455,59.2830168209305L59.67050085154147,58.64446357706309L61.241473989720475,58.05992670778008L62.81244712789949,57.57447907024486L64.38342026607849,57.11852169775622L65.9543934042575,56.7297379134221L67.52536654243652,56.40187353804423L69.09633968061553,56.108410801290304L70.66731281879453,55.8707833917552L72.23828595697354,55.62412135628658L73.80925909515256,55.41447263528744L75.38023223333157,55.207732976601335L76.95120537151057,55.04976220751405L78.52217850968958,54.92460861170511L80.09315164786858,54.80147635771512L81.6641247860476,54.6668750859953L83.23509792422661,54.54073361234691L84.80607106240561,54.42442146948794L86.37704420058462,54.27065024024108L87.94801733876363,54.18047408441018L89.51899047694265,54.078433354754054L91.08996361512165,54.00370201578478L92.66093675330066,53.92250731193444L94.23190989147967,53.83953015334028L95.80288302965869,53.733677472939675L97.3738561678377,53.65666863835037L98.94482930601669,53.583928350322566L100.5158024441957,53.51874931715754L102.08677558237471,53.428087666940556L103.65774872055373,53.382378097570296L105.22872185873273,53.30285396828698L106.79969499691174,53.27263934704031L108.37066813509075,53.16644307851725L109.94164127326977,53.13218423164639L111.51261441144878,53.08881830097087L113.08358754962778,53.02837771834048L114.65456068780679,52.977122204206296L116.2255338259858,52.946688254884776L117.79650696416482,52.906498191322214L119.3674801023438,52.84175411015403L120.93845324052282,52.8238407952814L122.50942637870183,52.81403412806009L124.08039951688085,52.77882951940438L125.65137265505986,52.7187294134566L127.22234579323886,52.67113015949181L128.79331893141787,52.636170810532064L130.36429206959687,52.58960943398277L131.9352652077759,52.563388694153204L133.5062383459549,52.51483777024768L135.0772114841339,52.48410221555608L136.64818462231293,52.44900521265218L138.21915776049192,52.40706453359472L139.79013089867095,52.338940867183624L141.36110403684995,52.26905244122395L142.93207717502895,52.224455256908826L144.50305031320798,52.17952563397404L146.07402345138695,52.1457826330587L147.64499658956598,52.12423821710718L149.21596972774498,52.077893425607755L150.786942865924,52.05538016847299L152.357916004103,52.03262010443886L153.928889142282,51.97869091568273L155.49986228046103,51.918301846378924L157.07083541864003,51.8849639591117L158.64180855681903,51.832319081229215L160.21278169499806,51.82553098452968L161.78375483317706,51.80566455679245L163.35472797135608,51.77633540642631L164.92570110953508,51.72850685998853L166.49667424771408,51.68773819292085L168.0676473858931,51.67387532150971L169.6386205240721,51.6369024667937L171.20959366225114,51.6108548260721L172.78056680043014,51.57653156375116L174.35153993860914,51.53535557062628L175.92251307678816,51.522214631668874L177.49348621496716,51.466492319153275L179.0644593531462,51.43714894124224L180.6354324913252,51.409376451204736L182.2064056295042,51.40396529295113L183.77737876768322,51.382199686260236L185.3483519058622,51.348030270080955L186.9193250440412,51.3395432245365L188.49029818222022,51.32171530881617L190.06127132039921,51.3202445956815L191.63224445857824,51.29099459621918L193.20321759675724,51.26494013829564L194.77419073493624,51.22896740036684L196.34516387311527,51.205358593124686L197.91613701129427,51.167786847223184L199.4871101494733,51.159541578215L201.0580832876523,51.120593442977366L202.62905642583132,51.080785370947694L204.20002956401032,51.07071830368557L205.77100270218935,51.04083393824777L207.34197584036835,51.006858734015026L208.91294897854738,50.99668158073111L210.48392211672638,50.95431150622085L212.05489525490538,50.951080555254336L213.6258683930844,50.962364392207135L215.1968415312634,50.92788105379222L216.76781466944243,50.88662624372937L218.33878780762143,50.859878570110126L219.90976094580043,50.832171399650974L221.48073408397946,50.83258622656501L223.05170722215846,50.839685592974746L224.62268036033748,50.835798228578014L226.19365349851645,50.771667445463876L227.76462663669545,50.7575278436545L229.33559977487448,50.7690345867708L230.90657291305348,50.76087046980845L232.47754605123248,50.713172012691174L234.0485191894115,50.69431636855026L235.6194923275905,50.67046951279963L237.19046546576953,50.6020366826026L238.76143860394853,50.58613127125969L240.33241174212753,50.56636366756112L241.90338488030656,50.56748956186013L243.47435801848556,50.55040301508279L245.0453311566646,50.54229832027403L246.6163042948436,50.5645614736453L248.1872774330226,50.560285307578866" style="fill: none;" fill="none"></path></g></g></g></g><g opacity="0.2"><g><g><g><path stroke="rgb(0, 119, 187)" stroke-width="2px" d="M36.10590377885632,74.05408007631493L37.67687691703534,46.9194023085613L39.24785005521434,46.56118899434779L40.81882319339336,42.710389461192904L42.38979633157237,39.75512321357189L43.96076946975138,41.36708312753282L45.53174260793039,37.60584332829063L47.10271574610939,37.695403062203326L48.6736888842884,37.60584332829063L50.24466202246741,39.038696585144805L51.81563516064642,38.94914966195074L53.38660829882543,36.26253699463055L54.95758143700444,33.12817690062138L56.52855457518345,35.72521702331022L58.099527713362455,40.74021623301843L59.67050085154147,35.18789705198992L61.241473989720475,36.53120338565003L62.81244712789949,35.90432368041701L64.38342026607849,34.11325710934932L65.9543934042575,35.63567010011616L67.52536654243652,33.48639021483493L69.09633968061553,36.97896362305764L70.66731281879453,33.75504379513578L72.23828595697354,37.60584332829063L73.80925909515256,34.740136814582314L75.38023223333157,35.277456785902615L76.95120537151057,36.352096728543245L78.52217850968958,34.29236376645608L80.09315164786858,36.26253699463055L81.6641247860476,34.02371018615523L83.23509792422661,62.591241210763L84.80607106240561,47.63582893698839L86.37704420058462,36.71031004275679L87.94801733876363,35.72521702331022L89.51899047694265,34.91924347168907L91.08996361512165,35.99388341432973L92.66093675330066,31.784870566961303L94.23190989147967,35.277456785902615L95.80288302965869,33.30728355772817L97.3738561678377,33.84460352904847L98.94482930601669,38.232723033523655L100.5158024441957,34.29236376645608L102.08677558237471,33.84460352904847L103.65774872055373,36.352096728543245L105.22872185873273,35.90432368041701L106.79969499691174,36.71031004275679L108.37066813509075,34.29236376645608L109.94164127326977,32.143083881174846L111.51261441144878,36.17299007143649L113.08358754962778,34.20281684326201L114.65456068780679,34.11325710934932L116.2255338259858,47.277615622774846L117.79650696416482,34.740136814582314L119.3674801023438,32.143083881174846L120.93845324052282,32.50129719538836L122.50942637870183,32.053536957980754L124.08039951688085,37.87450971931011L125.65137265505986,34.56103015747556L127.22234579323886,35.4565634430094L128.79331893141787,31.784870566961303L130.36429206959687,29.81469733878683L131.9352652077759,57.39714815466667L133.5062383459549,33.66549687194171L135.0772114841339,34.11325710934932L136.64818462231293,34.47147042356286L138.21915776049192,34.91924347168907L139.79013089867095,32.9490702435146L141.36110403684995,36.53120338565003L142.93207717502895,33.12817690062138L144.50305031320798,35.72521702331022L146.07402345138695,34.91924347168907L147.64499658956598,32.4117502721943L149.21596972774498,35.36700370909668L150.786942865924,33.48639021483493L152.357916004103,33.21772382381545L153.928889142282,32.053536957980754L155.49986228046103,33.48639021483493L157.07083541864003,31.068443938534216L158.64180855681903,33.48639021483493L160.21278169499806,31.96397722406806L161.78375483317706,32.23264361508754L163.35472797135608,33.934150452242534L164.92570110953508,33.30728355772817L166.49667424771408,33.66549687194171L168.0676473858931,32.859510509601904L169.6386205240721,42.08350975595988L171.20959366225114,33.48639021483493L172.78056680043014,31.605763909854517L174.35153993860914,32.3221905382816L175.92251307678816,31.874430300873996L177.49348621496716,32.76996358640784L179.0644593531462,33.57593713802902L180.6354324913252,33.30728355772817L182.2064056295042,31.605763909854517L183.77737876768322,33.21772382381545L185.3483519058622,34.29236376645608L186.9193250440412,31.874430300873996L188.49029818222022,32.23264361508754L190.06127132039921,35.277456785902615L191.63224445857824,30.35201731010713L193.20321759675724,30.88933728142746L194.77419073493624,31.69532364376721L196.34516387311527,31.69532364376721L197.91613701129427,33.48639021483493L199.4871101494733,33.03861716670869L201.0580832876523,35.90432368041701L202.62905642583132,42.53128280408612L204.20002956401032,33.30728355772817L205.77100270218935,35.09835012879586L207.34197584036835,33.30728355772817L208.91294897854738,91.51699836030296L210.48392211672638,33.934150452242534L212.05489525490538,32.68040385249515L213.6258683930844,31.42665725274776L215.1968415312634,33.21772382381545L216.76781466944243,30.978897015340152L218.33878780762143,32.9490702435146L219.90976094580043,34.38192350036877L221.48073408397946,31.605763909854517L223.05170722215846,31.516216986660453L224.62268036033748,33.12817690062138L226.19365349851645,31.337110329553695L227.76462663669545,33.21772382381545L229.33559977487448,32.053536957980754L230.90657291305348,33.39683048092223L232.47754605123248,31.874430300873996L234.0485191894115,33.12817690062138L235.6194923275905,31.605763909854517L237.19046546576953,33.03861716670869L238.76143860394853,32.4117502721943L240.33241174212753,33.03861716670869L241.90338488030656,33.39683048092223L243.47435801848556,31.247550595641002L245.0453311566646,34.29236376645608L246.6163042948436,33.03861716670869L248.1872774330226,30.08335091908765" style="fill: none;" fill="none"></path></g><g><path stroke="rgb(255, 112, 67)" stroke-width="2px" d="M36.10590377885632,163.39280347128127L37.67687691703534,88.19385951662458L39.24785005521434,73.86615964479363L40.81882319339336,67.27030494594787L42.38979633157237,64.09913965732689L43.96076946975138,62.12763411441533L45.53174260793039,60.774758173941805L47.10271574610939,59.9535911100305L48.6736888842884,59.23130998319145L50.24466202246741,58.44246436237293L51.81563516064642,57.89064265756825L53.38660829882543,57.49394594460293L54.95758143700444,57.043380159816266L56.52855457518345,56.741252171746325L58.099527713362455,56.358685681425214L59.67050085154147,56.286625389155304L61.241473989720475,55.88753307180697L62.81244712789949,55.76112971112657L64.38342026607849,55.40847624879662L65.9543934042575,55.26699467229369L67.52536654243652,55.165239134249276L69.09633968061553,54.99934032804566L70.66731281879453,54.971323286411135L72.23828595697354,54.68930812658361L73.80925909515256,54.61915663138895L75.38023223333157,54.42284517916778L76.95120537151057,54.449658013251494L78.52217850968958,54.448940613008446L80.09315164786858,54.33331106669233L81.6641247860476,54.15494743126585L83.23509792422661,54.060865513678266L84.80607106240561,53.98186181191319L86.37704420058462,53.68547302578759L87.94801733876363,53.83726723078422L89.51899047694265,53.690033641618356L91.08996361512165,53.71922926936645L92.66093675330066,53.61341273351768L94.23190989147967,53.523635217388346L95.80288302965869,53.33068017344712L97.3738561678377,53.36347561312907L98.94482930601669,53.306980343989466L100.5158024441957,53.270585092373665L102.08677558237471,53.082895253787655L103.65774872055373,53.208337810571095L105.22872185873273,53.00006114715346L106.79969499691174,53.157594554094445L108.37066813509075,52.762089237961334L109.94164127326977,53.00173935129345L111.51261441144878,52.92369645342529L113.08358754962778,52.79824108592321L114.65456068780679,52.78195866254988L116.2255338259858,52.830805932669904L117.79650696416482,52.75346762432619L119.3674801023438,52.59522962786079L120.93845324052282,52.75563263577395L122.50942637870183,52.77669345719468L124.08039951688085,52.64478148750521L125.65137265505986,52.48988708860114L127.22234579323886,52.48988708860114L128.79331893141787,52.50305650734842L130.36429206959687,52.41231818732216L131.9352652077759,52.46354825110657L133.5062383459549,52.32997088799577L135.0772114841339,52.367070729135975L136.64818462231293,52.315366668762394L138.21915776049192,52.24736737429686L139.79013089867095,52.07954696029938L141.36110403684995,52.00293886291732L142.93207717502895,52.0546429232909L144.50305031320798,52.00844747192642L146.07402345138695,52.0172996784968L147.64499658956598,52.04220371550528L149.21596972774498,51.9014267285268L150.786942865924,51.969656615927605L152.357916004103,51.945956786469935L153.928889142282,51.77334516370642L155.49986228046103,51.68835885634313L157.07083541864003,51.75802354423003L158.64180855681903,51.631863587203526L160.21278169499806,51.799684001201L161.78375483317706,51.7300193133141L163.35472797135608,51.664659026885474L164.92570110953508,51.54639047253244L166.49667424771408,51.53250365354211L168.0676473858931,51.62108977283927L169.6386205240721,51.49612121264495L171.20959366225114,51.51167342505663L172.78056680043014,51.445839142038835L174.35153993860914,51.378570058534976L175.92251307678816,51.47217797953341L177.49348621496716,51.254318898583705L179.0644593531462,51.325418386956684L180.6354324913252,51.303627354574274L182.2064056295042,51.383361267301L183.77737876768322,51.299322953116004L185.3483519058622,51.21792364696792L186.9193250440412,51.3072271665081L188.49029818222022,51.25383209127594L190.06127132039921,51.314644572592414L191.63224445857824,51.1796195982769L193.20321759675724,51.16573277928657L194.77419073493624,51.09199428287668L196.34516387311527,51.115463519399086L197.91613701129427,51.02472519937281L199.4871101494733,51.12814613083857L201.0580832876523,50.972290928037566L202.62905642583132,50.92920848129913L204.20002956401032,51.03238600911101L205.77100270218935,50.927043469851384L207.34197584036835,50.87749161020693L208.91294897854738,50.9579301124581L210.48392211672638,50.79297929943277L212.05489525490538,50.938778088112585L213.6258683930844,51.0053297713734L215.1968415312634,50.796579111366626L216.76781466944243,50.729540620798005L218.33878780762143,50.75803165902171L219.90976094580043,50.726671019825844L221.48073408397946,50.83416575981461L223.05170722215846,50.866717795842675L224.62268036033748,50.82099634106734L226.19365349851645,50.527477155913886L227.76462663669545,50.703688590611236L229.33559977487448,50.812848724021336L230.90657291305348,50.72978402445192L232.47754605123248,50.531550964436875L234.0485191894115,50.6225198773984L235.6194923275905,50.57966802359523L237.19046546576953,50.341465521467825L238.76143860394853,50.52556835883864L240.33241174212753,50.491094715016715L241.90338488030656,50.57177662092177L243.47435801848556,50.48534270235375L245.0453311566646,50.51143813619444L246.6163042948436,50.64933271148212L248.1872774330226,50.54400298294111" style="fill: none;" fill="none"></path></g></g></g></g></g></g><g transform="translate(41, 176)" clip-path="url(#clip_1)"><clipPath id="clip_1"><rect width="288" height="24"></rect></clipPath><g><g><line x1="4.686441015276144" y1="0" x2="4.686441015276144" y2="5" style="visibility: inherit;" fill="rgb(0, 0, 0)" stroke="rgb(204, 204, 204)" stroke-width="1px"></line><line x1="36.10590377885632" y1="0" x2="36.10590377885632" y2="5" style="visibility: inherit;" fill="rgb(0, 0, 0)" stroke="rgb(204, 204, 204)" stroke-width="1px"></line><line x1="67.52536654243652" y1="0" x2="67.52536654243652" y2="5" style="visibility: inherit;" fill="rgb(0, 0, 0)" stroke="rgb(204, 204, 204)" stroke-width="1px"></line><line x1="98.94482930601669" y1="0" x2="98.94482930601669" y2="5" style="visibility: inherit;" fill="rgb(0, 0, 0)" stroke="rgb(204, 204, 204)" stroke-width="1px"></line><line x1="130.36429206959687" y1="0" x2="130.36429206959687" y2="5" style="visibility: inherit;" fill="rgb(0, 0, 0)" stroke="rgb(204, 204, 204)" stroke-width="1px"></line><line x1="161.78375483317706" y1="0" x2="161.78375483317706" y2="5" style="visibility: inherit;" fill="rgb(0, 0, 0)" stroke="rgb(204, 204, 204)" stroke-width="1px"></line><line x1="193.20321759675724" y1="0" x2="193.20321759675724" y2="5" style="visibility: inherit;" fill="rgb(0, 0, 0)" stroke="rgb(204, 204, 204)" stroke-width="1px"></line><line x1="224.62268036033748" y1="0" x2="224.62268036033748" y2="5" style="visibility: inherit;" fill="rgb(0, 0, 0)" stroke="rgb(204, 204, 204)" stroke-width="1px"></line><line x1="256.04214312391764" y1="0" x2="256.04214312391764" y2="5" style="visibility: inherit;" fill="rgb(0, 0, 0)" stroke="rgb(204, 204, 204)" stroke-width="1px"></line><line x1="287.4616058874978" y1="0" x2="287.4616058874978" y2="5" style="visibility: inherit;" fill="rgb(0, 0, 0)" stroke="rgb(204, 204, 204)" stroke-width="1px"></line></g><g transform="translate(0, 8)"><text x="4.686441015276144" y="0" dx="0em" dy="0.95em" style="text-anchor: middle; visibility: hidden; font-family: &quot;Helvetica Neue&quot;, sans-serif; font-size: 12px; font-weight: 200;" fill="rgb(50, 49, 63)" stroke="none" stroke-width="1px">-20</text><text x="36.10590377885632" y="0" dx="0em" dy="0.95em" style="text-anchor: middle; visibility: inherit; font-family: &quot;Helvetica Neue&quot;, sans-serif; font-size: 12px; font-weight: 200;" fill="rgb(50, 49, 63)" stroke="none" stroke-width="1px">0</text><text x="67.52536654243652" y="0" dx="0em" dy="0.95em" style="text-anchor: middle; visibility: inherit; font-family: &quot;Helvetica Neue&quot;, sans-serif; font-size: 12px; font-weight: 200;" fill="rgb(50, 49, 63)" stroke="none" stroke-width="1px">20</text><text x="98.94482930601669" y="0" dx="0em" dy="0.95em" style="text-anchor: middle; visibility: inherit; font-family: &quot;Helvetica Neue&quot;, sans-serif; font-size: 12px; font-weight: 200;" fill="rgb(50, 49, 63)" stroke="none" stroke-width="1px">40</text><text x="130.36429206959687" y="0" dx="0em" dy="0.95em" style="text-anchor: middle; visibility: inherit; font-family: &quot;Helvetica Neue&quot;, sans-serif; font-size: 12px; font-weight: 200;" fill="rgb(50, 49, 63)" stroke="none" stroke-width="1px">60</text><text x="161.78375483317706" y="0" dx="0em" dy="0.95em" style="text-anchor: middle; visibility: inherit; font-family: &quot;Helvetica Neue&quot;, sans-serif; font-size: 12px; font-weight: 200;" fill="rgb(50, 49, 63)" stroke="none" stroke-width="1px">80</text><text x="193.20321759675724" y="0" dx="0em" dy="0.95em" style="text-anchor: middle; visibility: inherit; font-family: &quot;Helvetica Neue&quot;, sans-serif; font-size: 12px; font-weight: 200;" fill="rgb(50, 49, 63)" stroke="none" stroke-width="1px">100</text><text x="224.62268036033748" y="0" dx="0em" dy="0.95em" style="text-anchor: middle; visibility: inherit; font-family: &quot;Helvetica Neue&quot;, sans-serif; font-size: 12px; font-weight: 200;" fill="rgb(50, 49, 63)" stroke="none" stroke-width="1px">120</text><text x="256.04214312391764" y="0" dx="0em" dy="0.95em" style="text-anchor: middle; visibility: inherit; font-family: &quot;Helvetica Neue&quot;, sans-serif; font-size: 12px; font-weight: 200;" fill="rgb(50, 49, 63)" stroke="none" stroke-width="1px">140</text><text x="287.4616058874978" y="0" dx="0em" dy="0.95em" style="text-anchor: middle; visibility: hidden; font-family: &quot;Helvetica Neue&quot;, sans-serif; font-size: 12px; font-weight: 200;" fill="rgb(50, 49, 63)" stroke="none" stroke-width="1px">160</text></g><line x1="0" y1="0" x2="288.3125" y2="0" fill="rgb(0, 0, 0)" stroke="rgb(204, 204, 204)" stroke-width="1px"></line></g></g></g></g></svg>